<svg width="28" height="28" viewBox="0 0 28 28" fill="none" xmlns="http://www.w3.org/2000/svg">
<path d="M20.7631 10.4597C20.7631 10.4597 18.4868 17.3096 18.3157 17.891C18.2499 17.3096 16.5922 5 16.5922 5C12.7106 5 10.6447 7.64133 9.55267 10.4597C9.55267 10.4597 6.78953 17.3349 6.56584 17.9162C6.55262 17.3729 6.14475 10.5356 6.14475 10.5356C5.90784 7.09798 2.64476 5.0126 0 5.0126L3.18422 23.6667C7.24998 23.6541 9.43429 21.0126 10.579 18.207C10.579 18.207 13.0132 12.1406 13.1185 11.8625C13.1448 12.128 14.8685 23.6667 14.8685 23.6667C18.9342 23.6667 21.1316 21.1896 22.3158 18.485L28 5C23.9738 5 21.8552 7.64133 20.7631 10.4597Z" fill="white"/>
</svg>
