<?xml version="1.0" encoding="UTF-8"?>
<svg id="Logos" xmlns="http://www.w3.org/2000/svg" xmlns:xlink="http://www.w3.org/1999/xlink" viewBox="0 0 50 50">
  <defs>
    <style>
      .cls-1 {
        mask: url(#mask-5);
      }

      .cls-2 {
        mask: url(#mask-1);
      }

      .cls-3, .cls-4 {
        fill: #fff;
      }

      .cls-5 {
        mask: url(#mask);
      }

      .cls-4 {
        fill-rule: evenodd;
      }

      .cls-6 {
        fill: rgba(49, 27, 146, .2);
      }

      .cls-7 {
        fill: url(#radial-gradient);
      }

      .cls-8 {
        mask: url(#mask-6-2);
      }

      .cls-9 {
        fill: rgba(49, 27, 146, .1);
      }

      .cls-10 {
        mask: url(#mask-2-2);
      }

      .cls-11 {
        fill: rgba(255, 255, 255, .2);
      }

      .cls-12 {
        mask: url(#mask-4-2);
      }

      .cls-13 {
        fill: url(#linear-gradient);
      }

      .cls-14 {
        fill: #080808;
      }

      .cls-15 {
        mask: url(#mask-3);
      }
    </style>
    <mask id="mask" x="13.84" y="9.51" width="23.68" height="32.57" maskUnits="userSpaceOnUse">
      <g id="mask-2">
        <path id="path-1" class="cls-4" d="M28.65,9.51h-12.58c-1.22,0-2.22,1-2.22,2.22v28.12c0,1.22,1,2.22,2.22,2.22h19.24c1.22,0,2.22-1,2.22-2.22v-21.46l-8.88-8.88Z"/>
      </g>
    </mask>
    <mask id="mask-1" x="13.84" y="9.51" width="23.68" height="32.57" maskUnits="userSpaceOnUse">
      <g id="mask-4">
        <path id="path-3" class="cls-4" d="M28.65,9.51h-12.58c-1.22,0-2.22,1-2.22,2.22v28.12c0,1.22,1,2.22,2.22,2.22h19.24c1.22,0,2.22-1,2.22-2.22v-21.46l-8.88-8.88Z"/>
      </g>
    </mask>
    <mask id="mask-2-2" data-name="mask-2" x="13.84" y="9.51" width="23.68" height="32.57" maskUnits="userSpaceOnUse">
      <g id="mask-6">
        <path id="path-5" class="cls-4" d="M28.65,9.51h-12.58c-1.22,0-2.22,1-2.22,2.22v28.12c0,1.22,1,2.22,2.22,2.22h19.24c1.22,0,2.22-1,2.22-2.22v-21.46l-8.88-8.88Z"/>
      </g>
    </mask>
    <linearGradient id="linear-gradient" x1="5.79" y1="-24.7" x2="5.79" y2="-25.16" gradientTransform="translate(-61.83 -387.82) scale(16.45 -16.45)" gradientUnits="userSpaceOnUse">
      <stop offset="0" stop-color="#030712"/>
      <stop offset="0" stop-color="#000" stop-opacity=".2"/>
      <stop offset="1" stop-color="#000" stop-opacity=".02"/>
    </linearGradient>
    <mask id="mask-3" x="13.84" y="9.51" width="23.68" height="32.57" maskUnits="userSpaceOnUse">
      <g id="mask-9">
        <path id="path-8" class="cls-4" d="M28.65,9.51h-12.58c-1.22,0-2.22,1-2.22,2.22v28.12c0,1.22,1,2.22,2.22,2.22h19.24c1.22,0,2.22-1,2.22-2.22v-21.46l-8.88-8.88Z"/>
      </g>
    </mask>
    <mask id="mask-4-2" data-name="mask-4" x="13.84" y="9.51" width="23.68" height="32.57" maskUnits="userSpaceOnUse">
      <g id="mask-11">
        <path id="path-10" class="cls-4" d="M28.65,9.51h-12.58c-1.22,0-2.22,1-2.22,2.22v28.12c0,1.22,1,2.22,2.22,2.22h19.24c1.22,0,2.22-1,2.22-2.22v-21.46l-8.88-8.88Z"/>
      </g>
    </mask>
    <mask id="mask-5" x="13.84" y="9.51" width="23.68" height="32.57" maskUnits="userSpaceOnUse">
      <g id="mask-13">
        <path id="path-12" class="cls-4" d="M28.65,9.51h-12.58c-1.22,0-2.22,1-2.22,2.22v28.12c0,1.22,1,2.22,2.22,2.22h19.24c1.22,0,2.22-1,2.22-2.22v-21.46l-8.88-8.88Z"/>
      </g>
    </mask>
    <mask id="mask-6-2" data-name="mask-6" x="13.84" y="9.51" width="23.68" height="32.57" maskUnits="userSpaceOnUse">
      <g id="mask-15">
        <path id="path-14" class="cls-4" d="M28.65,9.51h-12.58c-1.22,0-2.22,1-2.22,2.22v28.12c0,1.22,1,2.22,2.22,2.22h19.24c1.22,0,2.22-1,2.22-2.22v-21.46l-8.88-8.88Z"/>
      </g>
    </mask>
    <radialGradient id="radial-gradient" cx="6.16" cy="-17.86" fx="6.16" fy="-17.86" r=".88" gradientTransform="translate(-253.19 -765.88) scale(43.47 -43.47)" gradientUnits="userSpaceOnUse">
      <stop offset="0" stop-color="#fff" stop-opacity=".1"/>
      <stop offset="1" stop-color="#fff" stop-opacity="0"/>
    </radialGradient>
  </defs>
  <rect id="Background" x="-13.71" y="-253.4" width="193.53" height="317.27"/>
  <g id="Google_Forms" data-name="Google Forms">
    <g id="Forms-icon">
      <g id="Group">
        <g id="Clipped">
          <g class="cls-5">
            <path id="Path" class="cls-3" d="M28.65,9.51h-12.58c-1.22,0-2.22,1-2.22,2.22v28.12c0,1.22,1,2.22,2.22,2.22h19.24c1.22,0,2.22-1,2.22-2.22v-21.46l-5.18-3.7-3.7-5.18Z"/>
          </g>
        </g>
        <g id="Clipped-2" data-name="Clipped">
          <g class="cls-2">
            <path id="Shape" d="M23.46,34.68h8.14v-1.48h-8.14v1.48ZM23.46,25.8v1.48h8.14v-1.48h-8.14ZM21.61,26.54c0,.61-.5,1.11-1.11,1.11s-1.11-.5-1.11-1.11.5-1.11,1.11-1.11,1.11.5,1.11,1.11ZM21.61,30.24c0,.61-.5,1.11-1.11,1.11s-1.11-.5-1.11-1.11.5-1.11,1.11-1.11,1.11.5,1.11,1.11ZM21.61,33.94c0,.61-.5,1.11-1.11,1.11s-1.11-.5-1.11-1.11.5-1.11,1.11-1.11,1.11.5,1.11,1.11ZM23.46,30.98h8.14v-1.48h-8.14v1.48Z"/>
          </g>
        </g>
        <g id="Clipped-3" data-name="Clipped">
          <g class="cls-10">
            <polygon id="Path-2" data-name="Path" class="cls-13" points="29.3 17.75 37.53 25.98 37.53 18.39 29.3 17.75"/>
          </g>
        </g>
        <g id="Clipped-4" data-name="Clipped">
          <g class="cls-15">
            <g id="Group-2" data-name="Group">
              <path id="Path-3" data-name="Path" class="cls-14" d="M28.65,9.51v6.66c0,1.23.99,2.22,2.22,2.22h6.66l-8.88-8.88Z"/>
            </g>
          </g>
        </g>
        <g id="Clipped-5" data-name="Clipped">
          <g class="cls-12">
            <path id="Path-4" data-name="Path" class="cls-11" d="M16.06,9.51c-1.22,0-2.22,1-2.22,2.22v.19c0-1.22,1-2.22,2.22-2.22h12.58v-.19h-12.58Z"/>
          </g>
        </g>
        <g id="Clipped-6" data-name="Clipped">
          <g class="cls-1">
            <path id="Path-5" data-name="Path" class="cls-6" d="M35.31,41.89h-19.24c-1.22,0-2.22-1-2.22-2.22v.19c0,1.22,1,2.22,2.22,2.22h19.24c1.22,0,2.22-1,2.22-2.22v-.19c0,1.22-1,2.22-2.22,2.22Z"/>
          </g>
        </g>
        <g id="Clipped-7" data-name="Clipped">
          <g class="cls-8">
            <path id="Path-6" data-name="Path" class="cls-9" d="M30.87,18.39c-1.23,0-2.22-.99-2.22-2.22v.19c0,1.23.99,2.22,2.22,2.22h6.66v-.19h-6.66Z"/>
          </g>
        </g>
      </g>
      <path id="Path-7" data-name="Path" class="cls-7" d="M28.65,9.51h-12.58c-1.22,0-2.22,1-2.22,2.22v28.12c0,1.22,1,2.22,2.22,2.22h19.24c1.22,0,2.22-1,2.22-2.22v-21.46l-8.88-8.88Z"/>
    </g>
  </g>
</svg>