<?xml version="1.0" encoding="UTF-8"?>
<svg id="Logos" xmlns="http://www.w3.org/2000/svg" viewBox="0 0 50 50">
  <defs>
    <style>
      .cls-1 {
        fill: #030712;
      }

      .cls-2 {
        fill: #fff;
      }
    </style>
  </defs>
  <rect id="Background" class="cls-1" x="-13.71" y="-192.44" width="193.53" height="256.73"/>
  <g id="Airtable">
    <path id="Icon" class="cls-2" d="M9.34,19.6s-.02,0-.03,0c-.25,0-.47.1-.63.26h0c-.16.14-.26.34-.27.56h0v11.56c.03.46.41.83.88.83.14,0,.27-.03.38-.09h0s9.1-4.36,9.1-4.36l4.11-1.99c.27-.14.45-.42.45-.74,0-.35-.22-.65-.53-.77h0s-13.15-5.21-13.15-5.21c-.08-.04-.18-.06-.29-.06h0,0ZM40.77,19.55c-.11,0-.22.02-.31.06h0s-13.85,5.36-13.85,5.36c-.31.13-.52.43-.53.78v12.3c0,.45.37.82.83.82.11,0,.21-.02.31-.06h0s13.85-5.38,13.85-5.38c.31-.12.53-.41.53-.76h0v-12.31c0-.46-.37-.82-.83-.82h0ZM24.99,11.12c-.64,0-1.25.13-1.8.37h.03s-12.36,5.1-12.36,5.1c-.3.13-.51.42-.51.77s.22.65.52.77h0s12.42,4.92,12.42,4.92c.5.21,1.09.33,1.7.33s1.2-.12,1.73-.34h-.03s12.42-4.91,12.42-4.91c.31-.13.52-.43.52-.77s-.21-.64-.5-.77h0s-12.39-5.11-12.39-5.11c-.52-.22-1.12-.36-1.75-.36h0,0Z"/>
  </g>
</svg>