<?xml version="1.0" encoding="UTF-8"?>
<svg id="Logos" xmlns="http://www.w3.org/2000/svg" viewBox="0 0 50 50">
  <defs>
    <style>
      .cls-1 {
        fill: #030712;
      }

      .cls-2 {
        fill: #fff;
      }
    </style>
  </defs>
  <rect id="Background" class="cls-1" x="-133.71" y="-192.44" width="193.53" height="256.73"/>
  <g id="Zoom">
    <path class="cls-2" d="M29.29,26.83c-.48.49-1.15.79-1.89.79-1.46,0-2.64-1.18-2.64-2.64s1.18-2.64,2.64-2.64c1.21,0,2.24.82,2.55,1.93v.02c.06.21.1.45.1.69,0,.72-.29,1.37-.76,1.85h0ZM24.31,21.85c-.85.8-1.37,1.94-1.37,3.2,0,2.43,1.97,4.4,4.4,4.4s4.4-1.97,4.4-4.4c0-2.01-1.35-3.71-3.19-4.23h-.03c-.35-.11-.76-.17-1.18-.17-1.17,0-2.24.46-3.03,1.21h0ZM41.07,20.56c-1.05,0-1.99.46-2.63,1.19h0c-.65-.73-1.59-1.19-2.64-1.19-.74,0-1.42.23-1.98.61h.01c-.41-.37-.95-.6-1.55-.61h0v8.81l.44-.02c.71-.02,1.28-.59,1.3-1.3h0s.02-.44.02-.44v-3.09l.02-.44h0c0-.32.08-.63.22-.89h0c.31-.52.88-.87,1.52-.87s1.21.35,1.52.87h0c.13.26.21.57.22.89h0l.02.44v3.09l.02.44c.03.71.59,1.27,1.29,1.3h0l.44.02v-4.85l.02-.44h0c0-.33.08-.63.22-.9h0c.31-.52.88-.86,1.52-.86s1.21.35,1.52.87h0c.13.26.21.57.21.89h0s.02.44.02.44v3.09l.02.44c.03.71.59,1.27,1.3,1.3h0l.44.02v-5.29c0-1.94-1.58-3.52-3.52-3.52h0,0ZM20.04,26.83c-.48.51-1.17.83-1.93.83-1.46,0-2.64-1.18-2.64-2.64s1.18-2.64,2.64-2.64c1.21,0,2.23.81,2.54,1.91v.02c.07.21.1.46.1.71,0,.7-.27,1.34-.72,1.81h0s0,0,0,0ZM18.18,20.56h0c-2.43,0-4.4,1.97-4.4,4.4s1.97,4.4,4.4,4.4,4.4-1.97,4.4-4.4-1.97-4.4-4.4-4.4h0ZM12.89,27.62l-.44-.02h-3.97l5.28-5.29-.02-.44c-.02-.71-.59-1.28-1.3-1.3h0l-.44-.02h-6.6l.02.44c.03.7.59,1.26,1.29,1.3h0l.44.02h3.97l-5.29,5.29.02.44c.02.71.59,1.27,1.3,1.3h0l.44.02h6.61l-.02-.44c-.03-.7-.59-1.27-1.29-1.3h0Z"/>
  </g>
</svg>