<?xml version="1.0" encoding="UTF-8"?>
<svg id="Logos" xmlns="http://www.w3.org/2000/svg" viewBox="0 0 50 50">
  <defs>
    <style>
      .cls-1 {
        fill: #030712;
      }

      .cls-2 {
        fill: #fff;
      }
    </style>
  </defs>
  <rect id="Background" class="cls-1" x="-133.71" y="-132.44" width="193.53" height="256.73"/>
  <g id="After_Effects" data-name="After Effects">
    <path id="e" class="cls-2" d="M39.35,28.57h-6.55c.08.64.29,1.28.64,1.84.37.56.89.99,1.51,1.24.83.35,1.74.54,2.64.52.72-.02,1.45-.08,2.15-.23.64-.08,1.26-.25,1.84-.48.1-.08.17-.04.17.17v3.16c0,.08-.02.17-.04.25-.04.06-.08.1-.14.14-.66.29-1.34.5-2.07.62-.97.19-1.94.27-2.93.25-1.57,0-2.89-.25-3.97-.72-1.01-.43-1.9-1.12-2.6-1.96-.66-.81-1.14-1.71-1.43-2.71-.29-.97-.43-1.98-.43-3.02,0-1.12.17-2.21.52-3.28.33-1.03.85-1.98,1.55-2.83.68-.83,1.53-1.49,2.5-1.96s2.13-.64,3.45-.64c1.09-.02,2.19.19,3.2.64.85.37,1.59.93,2.17,1.65.54.7.97,1.49,1.24,2.35.27.83.39,1.67.39,2.52,0,.5-.02.93-.04,1.32-.04.39-.06.68-.08.87-.02.14-.14.27-.29.27-.12,0-.35.02-.68.04-.33.04-.72.06-1.2.06s-.97-.08-1.51-.08h0ZM32.8,25.56h4.36c.54,0,.93,0,1.18-.02.17-.02.33-.06.48-.17v-.21c0-.27-.04-.52-.12-.76-.37-1.16-1.47-1.94-2.69-1.9-1.14-.06-2.21.54-2.75,1.57-.25.48-.39.97-.45,1.49Z"/>
    <path id="A" class="cls-2" d="M20.63,30.43h-7.68l-1.57,4.87c-.04.19-.21.31-.39.29h-3.88c-.23,0-.29-.12-.23-.37l6.65-19.07c.06-.21.12-.39.21-.64.08-.43.12-.89.12-1.34-.02-.1.06-.21.17-.23h5.35c.14,0,.25.06.27.17l7.54,21.07c.06.23,0,.33-.21.33h-4.32c-.14.02-.29-.08-.33-.23l-1.69-4.96v.1ZM14.15,26.32h5.25c-.12-.43-.29-.95-.48-1.49-.19-.56-.37-1.16-.56-1.78-.21-.64-.39-1.26-.6-1.9s-.39-1.24-.56-1.84c-.17-.58-.31-1.12-.45-1.61h-.04c-.19.89-.41,1.78-.7,2.66-.31.99-.62,2.02-.95,3.06-.27,1.05-.6,2.02-.91,2.89Z"/>
  </g>
</svg>