<?xml version="1.0" encoding="UTF-8"?>
<svg id="Logos" xmlns="http://www.w3.org/2000/svg" viewBox="0 0 50 50">
  <defs>
    <style>
      .cls-1 {
        fill: #030712;
      }

      .cls-2 {
        fill: #fff;
      }
    </style>
  </defs>
  <rect id="Background" class="cls-1" x="-133.71" y="-9.82" width="193.53" height="193.53"/>
  <path id="Figma" class="cls-2" d="M24.45,12.4v7.67h-3.84c-2.11,0-3.84-1.72-3.84-3.84s1.72-3.84,3.84-3.84h3.84ZM24.45,21.16v7.67h-3.84c-2.11,0-3.84-1.72-3.84-3.84s1.72-3.84,3.84-3.84h3.84ZM24.45,29.93v3.84c0,2.11-1.72,3.84-3.84,3.84s-3.84-1.72-3.84-3.84,1.72-3.84,3.84-3.84h3.84ZM33.22,16.23c0,2.11-1.72,3.84-3.84,3.84h-3.84v-7.67h3.84c2.11,0,3.84,1.72,3.84,3.84ZM29.38,21.16c-2.12,0-3.84,1.72-3.84,3.84s1.72,3.84,3.84,3.84,3.84-1.72,3.84-3.84-1.72-3.84-3.84-3.84Z"/>
</svg>