<?xml version="1.0" encoding="UTF-8"?>
<svg id="Logos" xmlns="http://www.w3.org/2000/svg" viewBox="0 0 50 50">
  <defs>
    <style>
      .cls-1 {
        fill: #030712;
      }

      .cls-2 {
        fill: #fff;
        fill-rule: evenodd;
      }
    </style>
  </defs>
  <rect id="Background" class="cls-1" x="-73.71" y="-69.82" width="193.53" height="193.53"/>
  <path id="Notion" class="cls-2" d="M16.92,16.64c.8.65,1.1.6,2.61.5l14.16-.85c.3,0,.05-.3-.05-.35l-2.36-1.7c-.61-.52-1.41-.76-2.21-.65l-13.71,1c-.5.05-.6.3-.4.5l1.95,1.55h0ZM17.77,19.95v14.9c0,.8.4,1.1,1.3,1.05l15.57-.9c.9-.05,1-.6,1-1.25v-14.8c0-.65-.25-1-.8-.95l-16.27.95c-.6.05-.8.35-.8,1h0ZM33.13,20.75c.1.45,0,.9-.45.95l-.74.15v11c-.65.35-1.25.55-1.75.55-.8,0-1-.25-1.61-1l-4.91-7.7v7.45l1.55.35s0,.9-1.25.9l-3.45.2c-.1-.2,0-.7.35-.8l.9-.25v-9.85l-1.25-.1c-.12-.5.19-1.01.69-1.13.05-.01.1-.02.16-.02l3.7-.25,5.11,7.81v-6.91l-1.3-.15c-.09-.46.21-.9.67-.99.04,0,.09-.01.13-.01l3.46-.2h0ZM14.21,13.24l14.26-1.05c1.76-.15,2.21-.05,3.31.75l4.55,3.21c.75.55,1,.7,1,1.3v17.56c0,1.1-.4,1.75-1.81,1.85l-16.57,1c-1.05.05-1.55-.1-2.1-.8l-3.35-4.36c-.6-.8-.85-1.41-.85-2.1v-15.6c0-.9.4-1.65,1.55-1.75Z"/>
</svg>