<?xml version="1.0" encoding="UTF-8"?>
<svg id="Logos" xmlns="http://www.w3.org/2000/svg" viewBox="0 0 50 50">
  <defs>
    <style>
      .cls-1 {
        fill: #030712;
      }

      .cls-2 {
        fill: #fff;
      }
    </style>
  </defs>
  <rect id="Background" class="cls-1" x="-73.71" y="-192.44" width="193.53" height="256.73"/>
  <g id="YT_Studio" data-name="YT Studio">
    <path class="cls-2" d="M21.89,29.67v-9.34l7.79,4.67-7.79,4.67ZM36.57,26.52c.07-.45.1-.98.11-1.52h0c0-.55-.04-1.08-.12-1.59v.06s3.29-2.57,3.29-2.57c.18-.15.29-.36.29-.61,0-.14-.04-.28-.1-.39h0s-3.11-5.38-3.11-5.38c-.14-.24-.39-.39-.68-.39-.1,0-.19.02-.28.05h0s-3.88,1.56-3.88,1.56c-.76-.59-1.63-1.11-2.56-1.5l-.07-.03-.59-4.13c-.05-.37-.37-.65-.75-.65h-6.25c-.38,0-.7.28-.75.65h0s-.59,4.13-.59,4.13c-1,.43-1.87.94-2.66,1.55l.03-.02-3.88-1.56c-.08-.03-.18-.06-.28-.06-.29,0-.54.16-.67.39h0s-3.11,5.39-3.11,5.39c-.07.11-.11.25-.11.39,0,.25.11.46.29.6h0s3.29,2.57,3.29,2.57c-.06.45-.1.98-.11,1.52h0c0,.55.04,1.08.12,1.6v-.06s-3.29,2.57-3.29,2.57c-.18.15-.29.36-.29.61,0,.14.04.28.1.39h0s3.11,5.38,3.11,5.38c.14.24.39.39.68.39.1,0,.19-.02.28-.05h0s3.88-1.56,3.88-1.56c.76.59,1.63,1.11,2.56,1.5l.07.03.59,4.13c.05.37.37.65.75.65h6.25c.38,0,.7-.28.75-.65h0s.59-4.13.59-4.13c1.01-.43,1.87-.94,2.66-1.55l-.03.02,3.88,1.56c.08.03.18.05.28.05.29,0,.54-.16.67-.39h0s3.11-5.39,3.11-5.39c.06-.11.1-.25.1-.39,0-.25-.11-.46-.29-.61h0s-3.29-2.57-3.29-2.57Z"/>
  </g>
</svg>