<?xml version="1.0" encoding="UTF-8"?>
<svg id="Logos" xmlns="http://www.w3.org/2000/svg" viewBox="0 0 50 50">
  <defs>
    <style>
      .cls-1 {
        fill: #030712;
      }

      .cls-2 {
        fill: #fff;
      }
    </style>
  </defs>
  <rect id="Background" class="cls-1" x="-13.71" y="-9.82" width="193.53" height="193.53"/>
  <path id="Canva" class="cls-2" d="M42.47,27.09c-.06,0-.12.04-.14.12-.36,1.04-.85,1.65-1.26,1.65-.23,0-.33-.26-.33-.66,0-1.02.61-3.17.91-4.15.04-.12.06-.22.06-.32,0-.29-.16-.43-.54-.43-.42,0-.86.16-1.3.93-.15-.67-.61-.97-1.24-.97-.74,0-1.45.47-2.03,1.24s-1.27,1.02-1.79.89c.37-.91.51-1.59.51-2.1,0-.79-.39-1.27-1.02-1.27-.96,0-1.52.92-1.52,1.88,0,.75.34,1.51,1.08,1.88-.62,1.41-1.53,2.69-1.88,2.69-.45,0-.58-2.18-.55-3.75.02-.9.09-.94.09-1.21,0-.16-.1-.26-.51-.26-.95,0-1.24.8-1.28,1.72-.01.35-.07.7-.16,1.03-.4,1.41-1.21,2.48-1.74,2.48-.25,0-.31-.25-.31-.57,0-1.02.57-2.28.57-3.37,0-.8-.35-1.3-1.01-1.3-.77,0-1.8.92-2.77,2.65.32-1.32.45-2.6-.49-2.6-.2,0-.41.06-.59.15-.12.06-.2.19-.19.32.09,1.41-1.13,5.01-2.29,5.01-.21,0-.31-.23-.31-.6,0-1.02.61-3.16.91-4.15.04-.13.06-.24.06-.33,0-.27-.17-.41-.54-.41-.41,0-.86.16-1.3.92-.15-.67-.61-.97-1.24-.97-1.04,0-2.21,1.1-2.72,2.54-.69,1.92-2.07,3.78-3.93,3.78-1.69,0-2.58-1.4-2.58-3.62,0-3.2,2.35-5.82,4.1-5.82.83,0,1.23.53,1.23,1.35,0,.99-.55,1.45-.55,1.82,0,.12.1.23.29.23.76,0,1.65-.89,1.65-2.11s-.99-2.1-2.73-2.1c-2.88,0-5.79,2.9-5.79,6.62,0,2.96,1.46,4.74,3.98,4.74,1.72,0,3.23-1.34,4.04-2.9.09,1.3.68,1.97,1.58,1.97.8,0,1.44-.47,1.93-1.31.19.87.69,1.3,1.35,1.3.75,0,1.38-.47,1.97-1.36,0,.69.15,1.34.75,1.34.28,0,.62-.07.68-.31.63-2.61,2.19-4.75,2.67-4.75.14,0,.18.14.18.3,0,.71-.5,2.17-.5,3.1,0,1,.43,1.67,1.31,1.67.98,0,1.97-1.2,2.63-2.95.21,1.64.66,2.95,1.36,2.95.86,0,2.39-1.81,3.32-3.73.36.05.91.03,1.43-.34-.22.57-.35,1.18-.35,1.8,0,1.78.85,2.28,1.58,2.28.8,0,1.44-.47,1.93-1.31.16.75.58,1.3,1.34,1.3,1.2,0,2.24-1.22,2.24-2.23,0-.27-.11-.43-.25-.43h0ZM17.61,28.76c-.48,0-.67-.49-.67-1.21,0-1.26.86-3.37,1.78-3.37.4,0,.55.47.55,1.04,0,1.28-.82,3.54-1.65,3.54ZM34.18,25c-.29-.34-.39-.81-.39-1.23,0-.51.19-.95.41-.95s.29.22.29.53c0,.52-.18,1.27-.31,1.65ZM37.93,28.76c-.48,0-.67-.56-.67-1.21,0-1.22.86-3.37,1.78-3.37.4,0,.54.47.54,1.04,0,1.28-.81,3.54-1.65,3.54h0Z"/>
</svg>