<?xml version="1.0" encoding="UTF-8"?>
<svg id="Logos" xmlns="http://www.w3.org/2000/svg" viewBox="0 0 50 50">
  <defs>
    <style>
      .cls-1 {
        fill: #030712;
      }

      .cls-2 {
        fill: #fff;
      }
    </style>
  </defs>
  <rect id="Background" class="cls-1" x="-13.71" y="-129.82" width="193.53" height="193.53"/>
  <g id="Premiere">
    <path class="cls-2" d="M12.46,34.36V13.85c0-.14.06-.22.2-.22.34,0,.66,0,1.12-.02.48-.02.98-.02,1.51-.04s1.12-.02,1.73-.04,1.21-.02,1.81-.02c1.63,0,2.99.2,4.1.62,1,.34,1.91.9,2.67,1.63.64.64,1.13,1.41,1.45,2.27.3.84.46,1.69.46,2.59,0,1.71-.4,3.13-1.19,4.24s-1.91,1.95-3.21,2.43c-1.35.5-2.85.68-4.48.68-.48,0-.8,0-1-.02s-.48-.02-.86-.02v6.39c.02.14-.08.26-.22.28h-3.86c-.16,0-.24-.08-.24-.26v.02ZM16.8,17.49v6.69c.28.02.54.04.78.04h1.06c.78,0,1.55-.12,2.29-.36.64-.18,1.19-.56,1.63-1.06.42-.5.62-1.17.62-2.05.02-.62-.14-1.23-.46-1.77-.34-.52-.82-.92-1.39-1.13-.74-.3-1.53-.42-2.35-.4-.52,0-.98,0-1.35.02-.4-.02-.68,0-.82.02h0Z"/>
    <path class="cls-2" d="M30.38,18.67h3.48c.2,0,.36.14.42.32.06.16.1.32.12.5.04.2.08.42.1.62.02.22.04.46.04.72.6-.7,1.31-1.27,2.13-1.71.92-.52,1.97-.78,3.03-.78.14-.02.26.08.28.22v3.96c0,.16-.1.22-.32.22-.72-.02-1.45.04-2.15.2-.58.12-1.13.3-1.67.54-.38.18-.74.42-1.02.74v10.15c0,.2-.08.28-.26.28h-3.92c-.16.02-.3-.08-.32-.24v-11.11c0-.48,0-.98-.02-1.49s-.02-1.04-.04-1.55c0-.46-.04-.9-.08-1.35-.02-.1.04-.2.14-.22,0-.02.04-.02.06,0h0Z"/>
  </g>
</svg>