<?xml version="1.0" encoding="UTF-8"?>
<svg id="Logos" xmlns="http://www.w3.org/2000/svg" viewBox="0 0 50 50">
  <defs>
    <style>
      .cls-1 {
        fill: #030712;
      }

      .cls-2 {
        fill: #fff;
      }
    </style>
  </defs>
  <rect id="Background" class="cls-1" x="-73.71" y="-129.82" width="193.53" height="193.53"/>
  <path id="Illustrator" class="cls-2" d="M24.6,30.33h-7.51l-1.53,4.74c-.04.18-.2.3-.38.28h-3.79c-.22,0-.28-.12-.22-.36l6.5-18.71c.06-.2.12-.42.2-.67.08-.42.12-.87.12-1.31-.02-.1.06-.2.16-.22h5.23c.16,0,.24.06.26.16l7.37,20.78c.06.22,0,.32-.2.32h-4.22c-.14.02-.28-.08-.32-.22l-1.65-4.8ZM18.27,26.23h5.13c-.12-.42-.28-.93-.46-1.45-.18-.54-.36-1.13-.54-1.74-.2-.63-.38-1.23-.59-1.86s-.38-1.21-.54-1.8c-.16-.57-.3-1.09-.44-1.57h-.04c-.18.87-.4,1.74-.69,2.6-.3.97-.61,1.98-.93,2.99-.28,1.03-.59,1.98-.89,2.83ZM35.5,17.61c-.67.02-1.31-.24-1.8-.71-.46-.5-.71-1.17-.69-1.86-.02-.69.24-1.33.73-1.8s1.13-.71,1.8-.71c.79,0,1.39.24,1.84.71.44.48.69,1.13.67,1.8.02.69-.22,1.35-.71,1.86-.46.48-1.15.75-1.84.71h0ZM33.24,35.13v-15.54c0-.2.08-.28.26-.28h4c.18,0,.26.1.26.28v15.54c0,.22-.08.32-.26.32h-3.96c-.2,0-.3-.12-.3-.32Z"/>
</svg>