<?xml version="1.0" encoding="UTF-8"?>
<svg id="Logos" xmlns="http://www.w3.org/2000/svg" viewBox="0 0 50 50">
  <defs>
    <style>
      .cls-1 {
        fill: #030712;
      }

      .cls-2 {
        fill: #fff;
      }
    </style>
  </defs>
  <rect id="Background" class="cls-1" x="-13.71" y="-69.82" width="193.53" height="193.53"/>
  <g id="AI_Tools" data-name="AI Tools">
    <path class="cls-2" d="M20.82,15.9q.2.02.39.06c.03.07.05.15.08.22.1.28.2.56.3.85.04.12.09.24.13.36.51,1.44,1.1,2.72,2.08,3.9.04.05.08.1.12.15.33.39.71.71,1.11,1.02.06.04.11.09.17.13.91.68,1.86,1.08,2.92,1.47.3.11.6.22.89.33.14.05.27.1.41.15q.09.03.19.07c.05.02.11.04.16.06q.13.05.26.12v.39c-.52.21-1.04.41-1.56.6-1.43.51-2.77,1.07-3.89,2.13q-.13.13-.33.28c-1.2,1.07-1.9,2.62-2.42,4.11-.04.11-.08.22-.12.33-.07.2-.14.4-.22.6-.02.04-.03.09-.05.13-.03.09-.07.19-.1.28-.04.13-.09.25-.15.37q-.21.06-.39.06c-.19-.28-.29-.57-.4-.89-.04-.11-.08-.23-.12-.34q-.03-.09-.06-.18c-.49-1.37-.99-2.67-1.95-3.79-.05-.06-.1-.12-.15-.18-.14-.16-.28-.32-.43-.47-.03-.04-.07-.08-.1-.12-1.07-1.15-2.59-1.78-4.04-2.29-.18-.06-.36-.13-.54-.19-.13-.05-.26-.09-.4-.14-.08-.03-.16-.06-.25-.09-.07-.02-.15-.05-.22-.08q-.17-.09-.26-.27c-.01-.05-.03-.1-.04-.15.23-.28.47-.36.8-.47q.08-.03.16-.06c.17-.06.34-.12.51-.18.65-.22,1.3-.45,1.92-.74q.06-.03.13-.06c2.73-1.32,4.01-3.72,4.96-6.44q.03-.09.07-.19c.04-.12.08-.24.12-.36.02-.05.04-.11.06-.16q.02-.07.05-.14t.18-.24Z"/>
    <path class="cls-2" d="M31.41,30.33q.13,0,.26.06t.14.32q.03.1.07.2c.02.07.05.14.07.21.32.89.67,1.58,1.34,2.25.04.04.08.08.12.12.61.59,1.49.89,2.29,1.15.05.02.1.03.15.05.04.01.09.03.14.04q.1.06.15.2,0,.06.02.12c-.4.17-.8.33-1.21.48-1.26.48-2.16,1.27-2.73,2.51-.21.49-.38.99-.55,1.49h-.32s-.03-.08-.04-.12c-.59-1.67-1.18-2.94-2.85-3.75-.35-.15-.7-.27-1.05-.39q-.08-.03-.16-.05s-.09-.03-.14-.05q-.12-.06-.25-.25c.09-.18.2-.19.39-.26.07-.02.13-.05.2-.07.14-.05.28-.1.42-.15,1.35-.49,2.28-1.24,2.89-2.54.19-.42.34-.85.49-1.29q.09-.24.15-.3Z"/>
    <path class="cls-2" d="M31.34,10.45h.32s.03.09.05.13c.07.2.15.4.22.6.02.07.05.14.07.21.48,1.29,1.2,2.27,2.46,2.87.41.19.83.34,1.26.47q.14.04.35.14.06.14.06.26c-.33.15-.67.29-1.01.42-.81.3-1.42.66-2.04,1.27-.04.04-.08.08-.12.12-.59.61-.89,1.49-1.15,2.29-.02.05-.03.1-.05.15-.01.04-.03.09-.04.14q-.06.1-.2.15t-.12.02c-.05-.11-.09-.22-.14-.33-.03-.07-.06-.14-.09-.22-.08-.2-.16-.4-.24-.6-.52-1.36-1.31-2.22-2.64-2.82-.32-.14-.66-.25-.99-.37-.05-.02-.1-.03-.15-.05-.04-.01-.09-.03-.14-.04q-.1-.06-.17-.25c.19-.16.37-.24.6-.33.07-.02.13-.05.2-.07.07-.02.14-.05.21-.07.55-.2,1.06-.39,1.52-.76.05-.04.1-.08.15-.12,1-.83,1.4-2.01,1.8-3.2Z"/>
  </g>
</svg>