<?xml version="1.0" encoding="UTF-8"?>
<svg id="Logos" xmlns="http://www.w3.org/2000/svg" viewBox="0 0 50 50">
  <defs>
    <style>
      .cls-1 {
        fill: #030712;
      }

      .cls-2 {
        fill: #fff;
      }
    </style>
  </defs>
  <rect id="Background" class="cls-1" x="-133.71" y="-69.82" width="193.53" height="193.53"/>
  <g id="Photoshop">
    <path class="cls-2" d="M11.25,34.81V13.37c0-.15.06-.23.21-.23.35,0,.69,0,1.17-.02.5-.02,1.02-.02,1.58-.04.56-.02,1.17-.02,1.81-.04.65-.02,1.27-.02,1.9-.02,1.71,0,3.12.21,4.29.65,1.04.35,2,.94,2.79,1.71.67.67,1.19,1.48,1.52,2.38.31.87.48,1.77.48,2.71,0,1.79-.42,3.27-1.25,4.44s-2,2.04-3.35,2.54c-1.42.52-2.98.71-4.69.71-.5,0-.83,0-1.04-.02s-.5-.02-.9-.02v6.69c.02.15-.08.27-.23.29h-4.04c-.17,0-.25-.08-.25-.27ZM15.79,17.16v7c.29.02.56.04.81.04h1.1c.81,0,1.63-.12,2.4-.38.67-.19,1.25-.58,1.71-1.1.44-.52.65-1.23.65-2.15.02-.65-.15-1.29-.48-1.85-.35-.54-.85-.96-1.46-1.19-.77-.31-1.6-.44-2.46-.42-.54,0-1.02,0-1.42.02-.42-.02-.71,0-.85.02h0Z"/>
    <path class="cls-2" d="M40,22.89c-.62-.33-1.29-.56-2-.71-.77-.17-1.54-.27-2.33-.27-.42-.02-.85.04-1.25.15-.27.06-.5.21-.65.42-.1.17-.17.38-.17.56s.08.38.21.54c.19.23.44.42.71.56.48.25.98.48,1.48.69,1.12.38,2.21.9,3.21,1.52.69.44,1.25,1.02,1.65,1.73.33.67.5,1.4.48,2.15.02.98-.27,1.96-.81,2.77-.58.83-1.4,1.48-2.33,1.85-1.02.44-2.27.67-3.77.67-.96,0-1.9-.08-2.83-.27-.73-.13-1.46-.35-2.12-.67-.15-.08-.25-.23-.23-.4v-3.62c0-.06.02-.15.08-.19.06-.04.13-.02.19.02.81.48,1.67.81,2.58,1.02.79.21,1.63.31,2.46.31s1.35-.1,1.73-.29c.33-.15.56-.5.56-.87,0-.29-.17-.56-.5-.83-.33-.27-1.02-.58-2.04-.98-1.06-.38-2.04-.87-2.96-1.5-.65-.46-1.19-1.06-1.58-1.77-.33-.67-.5-1.4-.48-2.12,0-.9.25-1.75.71-2.52.52-.83,1.29-1.5,2.19-1.92.98-.5,2.21-.73,3.69-.73.85,0,1.73.06,2.58.19.62.08,1.23.25,1.79.48.08.02.17.1.21.19.02.08.04.17.04.25v3.4c0,.08-.04.17-.1.21-.19.04-.29.04-.37,0Z"/>
  </g>
</svg>